<?xml version="1.0" encoding="UTF-8"?>
<svg id="Layer_1" data-name="Layer 1" xmlns="http://www.w3.org/2000/svg" viewBox="0 0 32 32">
  <defs>
    <style>
      .cls-1 {
        fill: #881ef9;
      }

      .cls-2 {
        fill: #ededf4;
      }
    </style>
  </defs>
  <circle class="cls-1" cx="16" cy="16" r="16"/>
  <g>
    <path class="cls-2" d="M26.09,12.83c0,3.58-2.68,6.55-6.14,6.99v-3.44c1.59-.4,2.76-1.85,2.76-3.56,0-2.02-1.65-3.67-3.67-3.67h-5.36v1.08h-3.38v-4.45c2.04,0,7.22,0,9.2,0,3.68.24,6.6,3.31,6.6,7.05Z"/>
    <path class="cls-2" d="M26.09,22.32v3.38h-3.19c-3.31,0-6.08-2.28-6.85-5.36h3.59c.61,1.18,1.84,1.98,3.26,1.98h3.19Z"/>
    <path class="cls-2" d="M13.67,20.24v5.46h-3.38v-5.82h-5.82v-3.38h5.46c.39,1.87,1.86,3.35,3.73,3.73Z"/>
    <path class="cls-2" d="M19.49,16.5v3.37c-.24.04-4.66,0-4.92.01-2.29-.04-4.16-1.86-4.28-4.13v-5.06h3.38v5.82h5.82Z"/>
  </g>
</svg>