<?xml version="1.0" encoding="UTF-8"?>
<svg id="Layer_1" data-name="Layer 1" xmlns="http://www.w3.org/2000/svg" viewBox="0 0 1100.61 277.72">
  <defs>
    <style>
      .cls-1 {
        fill: #ededf4;
      }
    </style>
  </defs>
  <g>
    <path class="cls-1" d="M394.32,216.49v-127.26h41.45c6.73,0,12.82,1.62,18.27,4.86,5.45,3.24,9.77,7.65,12.95,13.23,3.18,5.58,4.77,11.82,4.77,18.73,0,6.42-1.35,12.21-4.05,17.36-2.7,5.16-6.35,9.38-10.95,12.68-4.61,3.3-9.76,5.38-15.45,6.23l31.27,54.18h-11.36l-31.09-53.54h-26v53.54h-9.82ZM404.14,153.13h31c4.91,0,9.39-1.19,13.45-3.59,4.06-2.39,7.3-5.65,9.72-9.77,2.43-4.12,3.64-8.81,3.64-14.09s-1.21-9.89-3.64-14.05c-2.42-4.15-5.67-7.42-9.72-9.82-4.06-2.39-8.54-3.59-13.45-3.59h-31v54.9Z"/>
    <path class="cls-1" d="M495.68,216.49v-127.26h9.82v117.45h60.18v9.82h-69.99Z"/>
    <path class="cls-1" d="M652.48,125.59h9.82v90.9h-9.82l-.27-18.63c-3.09,6.3-7.5,11.38-13.23,15.22-5.73,3.85-12.59,5.77-20.59,5.77-6.61,0-12.8-1.25-18.59-3.77-5.79-2.51-10.9-5.97-15.32-10.36-4.42-4.4-7.88-9.48-10.36-15.27-2.48-5.79-3.73-12.01-3.73-18.68s1.23-12.79,3.68-18.54c2.46-5.76,5.86-10.83,10.23-15.23,4.37-4.4,9.42-7.82,15.18-10.28,5.76-2.45,11.91-3.68,18.46-3.68,8.06,0,15.04,1.95,20.95,5.86,5.91,3.91,10.53,9.01,13.87,15.32l-.27-18.63ZM618.3,209.22c6.97,0,12.95-1.71,17.95-5.13,5-3.42,8.83-8.04,11.5-13.86,2.67-5.82,4-12.21,4-19.18s-1.35-13.62-4.05-19.41c-2.7-5.79-6.54-10.39-11.55-13.82-5-3.42-10.95-5.13-17.86-5.13s-13.4,1.73-19.13,5.18c-5.73,3.46-10.29,8.09-13.68,13.91-3.39,5.82-5.09,12.24-5.09,19.27s1.74,13.6,5.23,19.36c3.48,5.76,8.1,10.34,13.86,13.73,5.76,3.4,12.03,5.09,18.82,5.09Z"/>
    <path class="cls-1" d="M759.83,80.14h9.82v136.35h-9.82v-18.73c-3.15,6.36-7.64,11.47-13.45,15.31-5.82,3.85-12.75,5.77-20.82,5.77-6.61,0-12.79-1.24-18.54-3.73-5.76-2.48-10.83-5.92-15.23-10.31-4.39-4.4-7.83-9.47-10.32-15.23-2.48-5.76-3.73-11.94-3.73-18.54s1.24-12.8,3.73-18.59c2.48-5.78,5.92-10.88,10.32-15.27,4.39-4.4,9.47-7.83,15.23-10.32,5.76-2.48,11.94-3.73,18.54-3.73,8.06,0,15,1.92,20.82,5.77,5.82,3.85,10.3,8.93,13.45,15.23v-63.99ZM725.65,209.22c6.97,0,12.95-1.71,17.95-5.13,5-3.42,8.83-8.04,11.5-13.86,2.67-5.82,4-12.21,4-19.18s-1.35-13.62-4.05-19.41c-2.7-5.79-6.54-10.39-11.55-13.82-5-3.42-10.95-5.13-17.86-5.13s-13.32,1.73-19.04,5.18c-5.73,3.46-10.31,8.09-13.73,13.91-3.42,5.82-5.13,12.24-5.13,19.27s1.74,13.6,5.23,19.36c3.48,5.76,8.1,10.34,13.86,13.73,5.76,3.4,12.03,5.09,18.82,5.09Z"/>
    <path class="cls-1" d="M799.19,108.41c-1.7,0-3.14-.56-4.32-1.68-1.18-1.12-1.77-2.53-1.77-4.23s.59-3.1,1.77-4.23c1.18-1.12,2.62-1.68,4.32-1.68s3.05.56,4.23,1.68c1.18,1.13,1.77,2.53,1.77,4.23s-.58,3.11-1.73,4.23c-1.15,1.12-2.58,1.68-4.27,1.68ZM794.19,125.59h9.82v90.9h-9.82v-90.9Z"/>
    <path class="cls-1" d="M868.54,218.85c-8.36,0-15.98-2.15-22.86-6.45-6.88-4.3-12.36-10.08-16.45-17.32-4.09-7.24-6.14-15.26-6.14-24.04,0-6.67,1.18-12.9,3.54-18.68,2.37-5.78,5.62-10.88,9.77-15.27,4.15-4.4,8.98-7.83,14.5-10.32,5.51-2.48,11.39-3.73,17.63-3.73,6.61,0,12.71,1.29,18.31,3.86,5.61,2.58,10.44,6.2,14.5,10.86,4.06,4.67,7.18,10.17,9.36,16.5,2.18,6.33,3.18,13.26,3,20.77h-80.36c.67,6.48,2.62,12.29,5.86,17.41,3.24,5.13,7.41,9.15,12.5,12.09,5.09,2.94,10.69,4.44,16.82,4.5,6.73,0,12.79-1.77,18.18-5.32,5.39-3.54,9.72-8.4,13-14.59l9.91,2.27c-3.64,8.06-9.12,14.65-16.45,19.77-7.34,5.13-15.55,7.68-24.63,7.68ZM833.09,166.68h70.72c-.36-6.24-2.17-11.98-5.41-17.23-3.24-5.24-7.47-9.44-12.68-12.59-5.21-3.15-10.94-4.73-17.18-4.73s-11.94,1.55-17.09,4.64c-5.15,3.09-9.35,7.26-12.59,12.5-3.24,5.24-5.16,11.04-5.77,17.41Z"/>
    <path class="cls-1" d="M961.26,218.22c-5.03-.06-9.95-.95-14.77-2.68-4.82-1.73-9.02-4.05-12.59-6.95-3.57-2.91-6.06-6.21-7.45-9.91l8.64-3.73c1.03,2.73,3.02,5.18,5.96,7.36,2.94,2.18,6.27,3.89,10,5.13,3.73,1.25,7.38,1.86,10.95,1.86,4.06,0,7.88-.69,11.45-2.09,3.57-1.4,6.48-3.37,8.73-5.91,2.24-2.54,3.36-5.54,3.36-9,0-3.64-1.18-6.5-3.54-8.59-2.36-2.09-5.38-3.79-9.04-5.09-3.67-1.3-7.44-2.53-11.32-3.68-6.67-1.94-12.44-3.92-17.32-5.95-4.88-2.03-8.65-4.62-11.32-7.77-2.67-3.15-4-7.3-4-12.45s1.55-9.97,4.64-13.91c3.09-3.94,7.15-6.98,12.18-9.13,5.03-2.15,10.42-3.23,16.18-3.23,7.45,0,14.23,1.64,20.32,4.91,6.09,3.27,10.37,7.58,12.86,12.91l-8,4.73c-1.21-2.79-3.12-5.18-5.73-7.18-2.61-2-5.58-3.54-8.91-4.63-3.33-1.1-6.7-1.67-10.09-1.73-4.24-.06-8.2.59-11.86,1.95-3.67,1.36-6.62,3.33-8.86,5.91-2.24,2.57-3.36,5.68-3.36,9.32s1.03,6.42,3.09,8.36,4.94,3.5,8.64,4.68c3.7,1.18,7.97,2.56,12.82,4.14,5.64,1.76,10.9,3.71,15.77,5.86,4.88,2.15,8.81,4.84,11.82,8.05,3,3.21,4.47,7.36,4.41,12.45,0,5.34-1.59,9.97-4.77,13.91-3.18,3.94-7.33,6.97-12.45,9.09-5.12,2.12-10.59,3.12-16.41,3Z"/>
    <path class="cls-1" d="M1050.25,207.4v-40.54h-40.54v-9.82h40.54v-40.54h9.82v40.54h40.54v9.82h-40.54v40.54h-9.82Z"/>
  </g>
  <g>
    <path class="cls-1" d="M301.26,98.29c0,49.95-37.39,91.27-85.64,97.5v-47.9c22.13-5.63,38.52-25.75,38.52-49.6,0-28.2-22.98-51.18-51.18-51.18h-74.78v15.01h-47.05V.03C109.64.05,181.81-.05,209.33.03c51.24,3.3,91.93,46.2,91.93,98.26Z"/>
    <path class="cls-1" d="M301.26,230.61v47.12h-44.47c-46.08,0-84.82-31.85-95.43-74.78h50.04c8.5,16.4,25.62,27.66,45.38,27.66h44.47Z"/>
    <path class="cls-1" d="M128.19,201.56v76.17h-47.05v-81.11H0v-47.12h76.13c5.38,26.06,26,46.67,52.06,52.06Z"/>
    <path class="cls-1" d="M209.33,149.5v46.93c-3.4.5-64.91.04-68.58.19-31.98-.54-58-25.9-59.61-57.6v-70.59h47.05v81.07h81.14Z"/>
  </g>
</svg>